<?xml version="1.0" standalone="no"?><!DOCTYPE svg PUBLIC "-//W3C//DTD SVG 1.1//EN" "http://www.w3.org/Graphics/SVG/1.1/DTD/svg11.dtd"><svg  viewBox="0 0 1024 1024"><path d="M504 176c142.144 0 259.568 105.92 277.6 243.136C882.976 436.272 960 521.472 960 624c0 114.88-96.704 208-216 208-4.288 0-8.56-0.128-12.784-0.352-3.712 0.24-7.456 0.352-11.216 0.352H240C142.8 832 64 753.2 64 656c0-92.176 70.864-167.808 161.072-175.36A283.632 283.632 0 0 1 224 456C224 301.36 349.36 176 504 176z m0 64C384.704 240 288 336.704 288 456c0 6.4 0.272 12.768 0.832 19.072l5.568 63.968-63.984 5.376-3.824 0.384A112.016 112.016 0 0 0 240 768h480l3.616-0.064 7.344-0.4 8.416 0.4 4.624 0.064c84.48 0 152-65.024 152-144 0-69.6-52.8-129.536-125.072-141.76l-46.624-7.872-6.16-46.88-0.704-4.992C701.264 318.288 610.992 240 504 240z m56.72 208c17.28 0 31.28 14 31.28 31.28v1.44c0 17.28-14 31.28-31.28 31.28h-113.44A31.28 31.28 0 0 1 416 480.72v-1.44c0-17.28 14-31.28 31.28-31.28h113.44z" fill="#000000"></path><path d="M368 576m31.28 0l209.44 0q31.28 0 31.28 31.28l0 1.44q0 31.28-31.28 31.28l-209.44 0q-31.28 0-31.28-31.28l0-1.44q0-31.28 31.28-31.28Z" fill="#007AFF"></path></svg>
