<?xml version="1.0" standalone="no"?><!DOCTYPE svg PUBLIC "-//W3C//DTD SVG 1.1//EN" "http://www.w3.org/Graphics/SVG/1.1/DTD/svg11.dtd"><svg class="icon" width="200px" height="200.00px" viewBox="0 0 1024 1024" version="1.1" xmlns="http://www.w3.org/2000/svg"><path fill="#333333" d="M512 240c94.948 0 177.823 51.69 222.02 128.465C842.356 375.675 928 465.835 928 576c0 114.875-93.125 208-208 208H256c-88.366 0-160-71.634-160-160s71.634-160 160-160c0.663 0 1.325 0.004 1.987 0.012C273.72 337.725 381.447 240 512 240z m0 64c-96.124 0-176.985 71.064-190.127 165.069l-0.377 2.855-3.537 28.39c-2.014 16.167-15.853 28.24-32.144 28.041l-28.607-0.348A99.297 99.297 0 0 0 256 528c-53.02 0-96 42.98-96 96 0 52.49 42.125 95.14 94.412 95.987L256 720h464c79.529 0 144-64.471 144-144 0-75.146-57.779-137.41-131.976-143.508l-2.253-0.168-17.072-1.136a32 32 0 0 1-25.608-15.964l-8.537-14.829C644.48 341.203 581.517 304 512 304z m-4.26 257.001l0.378 0.372c37.115 37.115 97.06 37.486 134.633 1.113l1.131-1.113c12.497-12.497 32.758-12.497 45.255 0 12.497 12.496 12.497 32.758 0 45.254-62.484 62.484-163.79 62.484-226.274 0-12.497-12.496-12.497-32.758 0-45.254C475.235 549 495.217 548.877 507.74 561z" /></svg>